<svg width="52" height="42" viewBox="0 0 52 42" fill="none" xmlns="http://www.w3.org/2000/svg">
<path fill-rule="evenodd" clip-rule="evenodd" d="M10.0582 0.299806H41.9414C43.1844 0.299778 44.2288 0.299754 45.0835 0.369586C45.9772 0.442598 46.8264 0.601155 47.6325 1.0119C48.8619 1.63827 49.8613 2.63775 50.4877 3.86708C50.8985 4.67321 51.057 5.52247 51.13 6.41608C51.1999 7.27073 51.1998 8.31512 51.1998 9.55801V18.4998C51.1998 19.5307 50.3641 20.3665 49.3331 20.3665C48.3022 20.3665 47.4665 19.5307 47.4665 18.4998V15.6998H4.53314V27.3665C4.53314 28.7041 4.53459 29.595 4.59052 30.2795C4.64467 30.9423 4.74043 31.2455 4.83832 31.4376C5.10677 31.9645 5.53511 32.3928 6.06197 32.6613C6.25409 32.7592 6.55735 32.8549 7.22009 32.9091C7.90462 32.965 8.79555 32.9665 10.1331 32.9665H25.9998C27.0307 32.9665 27.8665 33.8022 27.8665 34.8331C27.8665 35.8641 27.0307 36.6998 25.9998 36.6998H10.0582C8.81524 36.6998 7.77078 36.6999 6.91608 36.63C6.02246 36.557 5.1732 36.3985 4.36707 35.9877C3.13774 35.3613 2.13827 34.3619 1.5119 33.1325C1.10115 32.3264 0.942597 31.4771 0.869586 30.5835C0.799754 29.7288 0.799778 28.6844 0.799806 27.4414V9.55818C0.799778 8.31522 0.799754 7.27077 0.869586 6.41608C0.942597 5.52246 1.10115 4.6732 1.5119 3.86707C2.13827 2.63774 3.13774 1.63827 4.36707 1.0119C5.1732 0.601152 6.02246 0.442597 6.91608 0.369586C7.77077 0.299754 8.81522 0.299778 10.0582 0.299806ZM4.53314 11.9665H47.4665V9.63314C47.4665 8.29555 47.465 7.40462 47.4091 6.72009C47.3549 6.05735 47.2592 5.75409 47.1613 5.56197C46.8929 5.03512 46.4645 4.60677 45.9376 4.33832C45.7455 4.24043 45.4423 4.14467 44.7795 4.09052C44.095 4.03459 43.2041 4.03314 41.8665 4.03314H10.1331C8.79555 4.03314 7.90462 4.03459 7.22009 4.09052C6.55735 4.14467 6.25409 4.24043 6.06197 4.33832C5.53511 4.60677 5.10677 5.03511 4.83832 5.56197C4.74043 5.75409 4.64467 6.05735 4.59052 6.72009C4.53459 7.40462 4.53314 8.29555 4.53314 9.63314V11.9665ZM42.3331 23.6331C43.3641 23.6331 44.1998 24.4689 44.1998 25.4998V34.9933L48.0132 31.1799C48.7422 30.4509 49.9241 30.4509 50.6531 31.1799C51.3821 31.9089 51.3821 33.0908 50.6531 33.8197L43.6531 40.8197C42.9241 41.5487 41.7422 41.5487 41.0132 40.8197L34.0132 33.8197C33.2842 33.0908 33.2842 31.9089 34.0132 31.1799C34.7422 30.4509 35.9241 30.4509 36.6531 31.1799L40.4665 34.9933V25.4998C40.4665 24.4689 41.3022 23.6331 42.3331 23.6331Z" fill="#9AFF56"/>
</svg>
