<svg width="48" height="47" viewBox="0 0 48 47" fill="none" xmlns="http://www.w3.org/2000/svg">
<path fill-rule="evenodd" clip-rule="evenodd" d="M20.5821 1.5692C16.9838 -1.13205 11.8098 0.976257 11.1194 5.42157C10.7214 8.01395 8.67448 10.039 6.07526 10.4081C1.6241 11.0409 -0.544624 16.1931 2.11145 19.8216C3.66285 21.9375 3.64661 24.8187 2.07084 26.9162C-0.633972 30.5124 1.47789 35.6903 5.92093 36.3765C8.51202 36.7764 10.5345 38.8262 10.9082 41.4231C11.5417 45.8763 16.6914 48.0466 20.3222 45.3883C22.434 43.8383 25.3177 43.8556 27.4133 45.4309C31.0114 48.1322 36.1855 46.0237 36.8761 41.5787C37.2741 38.9863 39.3289 36.9612 41.92 36.5921C46.3713 35.9592 48.548 30.8069 45.8839 27.1786C44.3406 25.0624 44.3568 22.1812 45.9326 20.0841C48.6293 16.4878 46.5256 11.3099 42.0745 10.6238C39.4834 10.2235 37.4608 8.1741 37.0871 5.57717C36.4616 1.12399 31.304 -1.04626 27.6813 1.61159C25.5614 3.16173 22.6777 3.14447 20.5821 1.5692ZM15.2294 6.05591C14.5552 10.4591 11.0706 13.8987 6.66008 14.5254C5.31986 14.7163 4.66193 16.2698 5.46606 17.364C8.09778 20.958 8.06528 25.8515 5.39295 29.4139C4.58071 30.4981 5.21427 32.0595 6.55449 32.2664C10.9569 32.9459 14.4009 36.4268 15.0263 40.838C15.2131 42.1806 16.7727 42.835 17.8611 42.0334C21.4594 39.4007 26.3492 39.4301 29.915 42.1058C30.9952 42.9203 32.5547 42.2846 32.766 40.9443C33.4482 36.5412 36.9247 33.1015 41.3353 32.4748C42.6836 32.2839 43.3334 30.7302 42.5293 29.6362C39.8976 26.0422 39.93 21.1486 42.6025 17.5864C43.4228 16.502 42.7811 14.9407 41.4409 14.7338C37.0385 14.0541 33.6025 10.5731 32.9772 6.16225C32.9041 5.67339 32.6522 5.27562 32.311 5.00632C31.7101 4.53597 30.8328 4.45676 30.1343 4.96646C26.5441 7.59945 21.6462 7.57 18.0885 4.89437C17.0001 4.07984 15.4406 4.71569 15.2294 6.05591ZM33.1883 19.159C33.2045 18.6021 33.0016 18.0386 32.5792 17.6134C31.7668 16.8014 30.451 16.8014 29.6388 17.6134L21.5487 25.7054L18.9739 23.1322C18.1616 22.32 16.8458 22.32 16.0335 23.1322C15.2213 23.9442 15.2213 25.2608 16.0335 26.0728L19.9648 30.0072C20.3953 30.4385 20.9882 30.6406 21.5568 30.6138C22.1254 30.6406 22.6939 30.4385 23.1245 30.0068L32.5792 20.5543C32.9691 20.1672 33.1721 19.6659 33.1883 19.159Z" fill="#9AFF56"/>
</svg>
