<svg width="22" height="22" viewBox="0 0 22 22" fill="none" xmlns="http://www.w3.org/2000/svg">
<path d="M20 19.9998H12M1.49997 20.4998L7.04924 18.3655C7.40418 18.229 7.58165 18.1607 7.74769 18.0716C7.89517 17.9924 8.03577 17.901 8.16801 17.7984C8.31689 17.6829 8.45134 17.5484 8.72025 17.2795L20 5.99982C21.1046 4.89525 21.1046 3.10438 20 1.99981C18.8954 0.895245 17.1046 0.895244 16 1.99981L4.72025 13.2795C4.45135 13.5484 4.31689 13.6829 4.20136 13.8318C4.09874 13.964 4.00737 14.1046 3.9282 14.2521C3.83908 14.4181 3.77082 14.5956 3.6343 14.9506L1.49997 20.4998ZM1.49997 20.4998L3.55809 15.1488C3.70537 14.7659 3.779 14.5744 3.90531 14.4867C4.01569 14.4101 4.15227 14.3811 4.28426 14.4063C4.4353 14.4351 4.58035 14.5802 4.87045 14.8703L7.12954 17.1294C7.41964 17.4195 7.56469 17.5645 7.59353 17.7155C7.61874 17.8475 7.58975 17.9841 7.51311 18.0945C7.42542 18.2208 7.23396 18.2944 6.85104 18.4417L1.49997 20.4998Z" stroke="#FFD233" stroke-width="1.5" stroke-linecap="round" stroke-linejoin="round"/>
</svg>
