<svg width="42" height="51" viewBox="0 0 42 51" fill="none" xmlns="http://www.w3.org/2000/svg">
<path fill-rule="evenodd" clip-rule="evenodd" d="M20.3994 0.501671C20.7977 0.444105 21.2023 0.444105 21.6007 0.501671C22.0575 0.567674 22.4843 0.728599 22.8695 0.873834C22.9021 0.886108 22.9344 0.89827 22.9663 0.910253L35.4772 5.60183C35.5699 5.63659 35.6615 5.67083 35.752 5.70466C37.2273 6.25622 38.4122 6.69919 39.3197 7.49896C40.1157 8.20047 40.7289 9.08529 41.1062 10.0769C41.5364 11.2075 41.5351 12.4724 41.5336 14.0475C41.5335 14.1441 41.5334 14.2419 41.5334 14.3409V25.4998C41.5334 31.9215 38.0391 37.3096 34.1989 41.3103C30.3379 45.3327 25.9131 48.1795 23.5693 49.5469C23.5396 49.5642 23.5096 49.5818 23.4793 49.5995C23.0431 49.8552 22.5443 50.1476 21.8807 50.2899C21.3398 50.4059 20.6603 50.4059 20.1194 50.2899C19.4557 50.1476 18.9569 49.8552 18.5207 49.5995C18.4904 49.5818 18.4605 49.5642 18.4308 49.5469C16.0869 48.1795 11.6622 45.3327 7.80116 41.3103C3.96093 37.3096 0.466693 31.9215 0.466693 25.4998V14.3409C0.466693 14.2419 0.466594 14.1441 0.466497 14.0475C0.464913 12.4724 0.463641 11.2075 0.893843 10.0769C1.27119 9.08529 1.88437 8.20047 2.68038 7.49896C3.58788 6.69919 4.77276 6.25622 6.24808 5.70466C6.33858 5.67083 6.43018 5.63659 6.52287 5.60183L19.0337 0.910253C19.0657 0.898271 19.0979 0.88611 19.1305 0.873836C19.5157 0.728602 19.9426 0.567675 20.3994 0.501671ZM20.9369 4.19612C20.928 4.19817 20.9017 4.20497 20.8476 4.22269C20.7409 4.25768 20.6011 4.30971 20.3446 4.40588L7.83373 9.09745C5.94394 9.80613 5.47281 10.0142 5.14875 10.2998C4.8076 10.6005 4.54481 10.9797 4.38309 11.4047C4.22947 11.8084 4.20003 12.3226 4.20003 14.3409V25.4998C4.20003 30.5312 6.95207 35.0346 10.4945 38.725C14.0161 42.3938 18.1104 45.0378 20.312 46.3222C20.5912 46.4851 20.7175 46.5574 20.8156 46.6052C20.8646 46.6291 20.8835 46.6353 20.8941 46.6379C20.8971 46.6383 20.9035 46.6391 20.9133 46.64C20.9359 46.6421 20.966 46.6436 21 46.6436C21.0341 46.6436 21.0641 46.6421 21.0868 46.64C21.0966 46.6391 21.1029 46.6383 21.106 46.6379C21.1166 46.6353 21.1355 46.6291 21.1844 46.6052C21.2825 46.5574 21.4088 46.4851 21.688 46.3222C23.8897 45.0378 27.9839 42.3938 31.5056 38.725C35.048 35.0346 37.8 30.5312 37.8 25.4998V14.3409C37.8 12.3226 37.7706 11.8084 37.617 11.4047C37.4552 10.9797 37.1924 10.6005 36.8513 10.2998C36.5272 10.0142 36.0561 9.80613 34.1663 9.09745L21.6555 4.40588C21.399 4.30971 21.2592 4.25768 21.1524 4.22269C21.0984 4.20497 21.072 4.19817 21.0631 4.19612C21.0213 4.1904 20.9788 4.1904 20.9369 4.19612ZM30.4866 17.1799C31.2156 17.9089 31.2156 19.0908 30.4866 19.8198L19.9866 30.3198C19.2576 31.0487 18.0757 31.0487 17.3468 30.3198L12.6801 25.6531C11.9511 24.9241 11.9511 23.7422 12.6801 23.0132C13.4091 22.2842 14.591 22.2842 15.32 23.0132L18.6667 26.36L27.8468 17.1799C28.5757 16.4509 29.7576 16.4509 30.4866 17.1799Z" fill="#9AFF56"/>
</svg>
