<svg width="24" height="21" viewBox="0 0 24 21" fill="none" xmlns="http://www.w3.org/2000/svg">
<path d="M7.55016 20.1677C16.6045 20.1677 21.5583 12.6644 21.5583 6.15958C21.5583 5.94865 21.5536 5.73302 21.5442 5.52208C22.5079 4.82519 23.3395 3.96198 24 2.97302C23.1025 3.37232 22.1496 3.63311 21.1739 3.74646C22.2013 3.13063 22.9705 2.1632 23.3391 1.02349C22.3726 1.59628 21.3156 2.00034 20.2134 2.21833C19.4708 1.42929 18.489 0.906841 17.4197 0.731776C16.3504 0.55671 15.2532 0.738775 14.2977 1.24982C13.3423 1.76087 12.5818 2.57243 12.1338 3.55904C11.6859 4.54564 11.5754 5.65234 11.8195 6.70802C9.86249 6.60981 7.94794 6.10143 6.19998 5.21582C4.45203 4.33022 2.90969 3.08716 1.67297 1.56724C1.0444 2.65097 0.852057 3.93337 1.13503 5.15382C1.418 6.37426 2.15506 7.44117 3.19641 8.13771C2.41463 8.11289 1.64998 7.9024 0.965625 7.52365V7.58458C0.964925 8.72187 1.3581 9.82431 2.07831 10.7045C2.79852 11.5847 3.80132 12.1883 4.91625 12.4127C4.19206 12.6109 3.43198 12.6397 2.69484 12.4971C3.00945 13.4752 3.62157 14.3306 4.44577 14.9441C5.26997 15.5575 6.26512 15.8983 7.29234 15.919C5.54842 17.2888 3.39417 18.0318 1.17656 18.0283C0.783287 18.0277 0.390399 18.0036 0 17.9561C2.25286 19.4015 4.87353 20.1691 7.55016 20.1677Z" fill="#F5F5F5"/>
</svg>
